<?xml version="1.0" encoding="UTF-8" standalone="no"?>
<!DOCTYPE svg PUBLIC "-//W3C//DTD SVG 1.1//EN" "http://www.w3.org/Graphics/SVG/1.1/DTD/svg11.dtd">
<svg width="100%" height="100%" viewBox="0 0 240 151" version="1.1" xmlns="http://www.w3.org/2000/svg" xmlns:xlink="http://www.w3.org/1999/xlink" xml:space="preserve" xmlns:serif="http://www.serif.com/" style="fill-rule:evenodd;clip-rule:evenodd;stroke-linejoin:round;stroke-miterlimit:2;">
    <g transform="matrix(1.1709,0,0,1.1709,-20.5078,-65.1119)">
        <g transform="matrix(1,0,0,1,-496.788,-240.437)">
            <path d="M593.295,301.964C630.915,283.04 683.301,311.947 687.35,353.864C691.398,395.78 645.511,434.178 604.965,422.803C564.419,411.428 529.491,334.059 593.295,301.964Z" style="fill:rgb(0,180,255);fill-opacity:0.8;fill-rule:nonzero;"/>
        </g>
        <g transform="matrix(4.12236e-17,0.673233,-0.673233,4.12236e-17,422.955,-283.94)">
            <path d="M667.488,421.103C662.619,399.64 654.398,379.128 645.88,358.894C638.201,341.576 631.132,323.758 620.859,307.775C615.853,299.577 605.14,293.449 597.219,301.65C588.279,313.859 583.536,328.638 576.656,342.045C561.456,375.381 545.702,408.495 531.841,442.419C555.535,412.588 578.952,382.345 598.024,349.283C600.046,345.672 602.014,342.028 603.928,338.354C603.809,338.736 603.669,339.301 603.496,340.128C592.027,383.043 586.361,427.5 585.499,471.883C585.684,515.579 590.924,559.107 597.645,602.229C608.192,535.485 613.919,467.73 609.628,400.18C608.634,381.263 606.963,362.386 604.927,343.554C604.539,341.948 604.629,337.747 604.236,337.762C605.494,335.34 606.71,332.898 607.886,330.437C609.756,333.654 611.585,336.895 613.466,340.101C626.634,363.362 641.543,385.557 656.878,407.431C660.687,412.966 664.448,418.534 668.159,424.135C667.934,423.127 667.722,422.111 667.488,421.103Z" style="fill-rule:nonzero;"/>
        </g>
    </g>
</svg>
