<?xml version="1.0" encoding="UTF-8" standalone="no"?>
<!DOCTYPE svg PUBLIC "-//W3C//DTD SVG 1.1//EN" "http://www.w3.org/Graphics/SVG/1.1/DTD/svg11.dtd">
<svg width="100%" height="100%" viewBox="0 0 241 222" version="1.1" xmlns="http://www.w3.org/2000/svg" xmlns:xlink="http://www.w3.org/1999/xlink" xml:space="preserve" xmlns:serif="http://www.serif.com/" style="fill-rule:evenodd;clip-rule:evenodd;stroke-linejoin:round;stroke-miterlimit:2;">
    <g transform="matrix(1.1709,0,0,1.1709,-20.5078,5.93218)">
        <g transform="matrix(1,0,0,1,-496.788,-240.437)">
            <path d="M593.295,301.964C630.915,283.04 683.301,311.947 687.35,353.864C691.398,395.78 645.511,434.178 604.965,422.803C564.419,411.428 529.491,334.059 593.295,301.964Z" style="fill:rgb(0,180,255);fill-opacity:0.8;fill-rule:nonzero;"/>
        </g>
        <g transform="matrix(0.854044,0,0,0.854044,-433.694,-211.359)">
            <g transform="matrix(0.73987,-0.672749,0.672749,0.73987,-75.8881,471.191)">
                <g transform="matrix(80,0,0,80,571.356,333.727)">
                    <path d="M0.401,-0.145C0.401,-0.14 0.4,-0.135 0.399,-0.13C0.397,-0.125 0.396,-0.121 0.394,-0.116C0.387,-0.098 0.378,-0.08 0.368,-0.065C0.357,-0.049 0.345,-0.035 0.332,-0.024C0.318,-0.013 0.302,-0.004 0.285,0.003C0.268,0.009 0.249,0.013 0.228,0.013C0.2,0.013 0.177,0.007 0.157,-0.005C0.137,-0.017 0.12,-0.032 0.106,-0.051C0.092,-0.069 0.08,-0.09 0.072,-0.113C0.063,-0.136 0.056,-0.16 0.05,-0.183C0.042,-0.216 0.036,-0.25 0.032,-0.283C0.028,-0.317 0.026,-0.351 0.026,-0.385C0.026,-0.405 0.027,-0.425 0.029,-0.446C0.03,-0.467 0.034,-0.488 0.038,-0.509C0.043,-0.53 0.049,-0.55 0.057,-0.569C0.064,-0.588 0.074,-0.606 0.086,-0.623C0.098,-0.639 0.112,-0.654 0.128,-0.667C0.144,-0.679 0.163,-0.689 0.184,-0.696C0.192,-0.699 0.2,-0.701 0.208,-0.702C0.217,-0.704 0.225,-0.704 0.234,-0.704C0.251,-0.704 0.267,-0.701 0.282,-0.696C0.298,-0.69 0.311,-0.682 0.323,-0.672C0.334,-0.662 0.343,-0.65 0.35,-0.636C0.357,-0.621 0.36,-0.605 0.36,-0.588C0.36,-0.582 0.359,-0.578 0.356,-0.575C0.353,-0.572 0.349,-0.57 0.342,-0.57C0.33,-0.57 0.321,-0.572 0.314,-0.576C0.308,-0.58 0.302,-0.585 0.298,-0.591C0.294,-0.597 0.29,-0.603 0.287,-0.61C0.285,-0.617 0.281,-0.623 0.277,-0.629C0.273,-0.635 0.268,-0.64 0.262,-0.644C0.255,-0.647 0.246,-0.649 0.235,-0.649C0.223,-0.649 0.213,-0.647 0.203,-0.643C0.193,-0.638 0.184,-0.633 0.176,-0.625C0.167,-0.618 0.16,-0.61 0.153,-0.601C0.146,-0.592 0.14,-0.583 0.135,-0.574C0.122,-0.549 0.112,-0.522 0.106,-0.493C0.101,-0.464 0.098,-0.435 0.098,-0.406C0.098,-0.396 0.099,-0.384 0.099,-0.368C0.1,-0.353 0.101,-0.336 0.103,-0.317C0.105,-0.299 0.108,-0.279 0.111,-0.259C0.114,-0.238 0.118,-0.218 0.123,-0.198C0.128,-0.178 0.133,-0.159 0.14,-0.141C0.147,-0.122 0.154,-0.106 0.163,-0.093C0.171,-0.079 0.181,-0.068 0.192,-0.06C0.203,-0.052 0.215,-0.048 0.229,-0.048C0.243,-0.048 0.255,-0.052 0.266,-0.059C0.277,-0.066 0.286,-0.075 0.294,-0.087C0.301,-0.098 0.308,-0.11 0.313,-0.123C0.318,-0.136 0.322,-0.149 0.325,-0.16C0.326,-0.163 0.327,-0.166 0.327,-0.169C0.328,-0.172 0.329,-0.174 0.331,-0.176C0.332,-0.178 0.334,-0.179 0.336,-0.18C0.339,-0.181 0.342,-0.182 0.346,-0.182C0.351,-0.182 0.356,-0.181 0.363,-0.179C0.369,-0.177 0.375,-0.175 0.381,-0.171C0.386,-0.168 0.391,-0.164 0.395,-0.16C0.399,-0.155 0.401,-0.15 0.401,-0.145Z" style="fill-rule:nonzero;"/>
                </g>
            </g>
            <g transform="matrix(0.860376,-0.50966,0.50966,0.860376,-76.5808,347.046)">
                <g transform="matrix(80,0,0,80,595.108,313.292)">
                    <path d="M0.148,0.014C0.148,0.019 0.147,0.022 0.145,0.025C0.142,0.028 0.139,0.031 0.136,0.032C0.133,0.034 0.129,0.036 0.125,0.036C0.121,0.037 0.117,0.038 0.114,0.038C0.102,0.038 0.092,0.034 0.084,0.028C0.076,0.021 0.068,0.013 0.062,0.003C0.056,-0.008 0.051,-0.019 0.047,-0.032C0.043,-0.046 0.04,-0.059 0.037,-0.072C0.035,-0.085 0.033,-0.098 0.031,-0.11C0.03,-0.122 0.029,-0.133 0.028,-0.142C0.025,-0.172 0.023,-0.203 0.022,-0.234C0.021,-0.265 0.021,-0.296 0.021,-0.327C0.021,-0.41 0.023,-0.493 0.029,-0.575L0.03,-0.584C0.03,-0.591 0.03,-0.599 0.031,-0.608C0.031,-0.617 0.032,-0.626 0.032,-0.635C0.033,-0.644 0.034,-0.652 0.034,-0.659C0.035,-0.666 0.036,-0.671 0.038,-0.674L0.038,-0.674C0.039,-0.678 0.041,-0.682 0.043,-0.684C0.045,-0.686 0.049,-0.688 0.055,-0.688C0.066,-0.688 0.076,-0.684 0.084,-0.676C0.093,-0.668 0.097,-0.658 0.097,-0.646C0.097,-0.644 0.097,-0.641 0.096,-0.639L0.095,-0.625C0.095,-0.623 0.095,-0.621 0.095,-0.62C0.094,-0.607 0.093,-0.594 0.093,-0.582C0.092,-0.569 0.091,-0.557 0.091,-0.544C0.089,-0.516 0.088,-0.488 0.087,-0.46C0.086,-0.432 0.086,-0.404 0.086,-0.376C0.086,-0.364 0.086,-0.348 0.086,-0.329C0.087,-0.309 0.087,-0.288 0.088,-0.265C0.089,-0.242 0.091,-0.218 0.093,-0.194C0.094,-0.169 0.097,-0.146 0.1,-0.124C0.103,-0.102 0.106,-0.082 0.11,-0.064C0.114,-0.046 0.119,-0.032 0.125,-0.022C0.127,-0.021 0.13,-0.019 0.133,-0.016C0.136,-0.014 0.138,-0.01 0.14,-0.007C0.142,-0.004 0.144,-0 0.146,0.004C0.147,0.007 0.148,0.011 0.148,0.014Z" style="fill-rule:nonzero;"/>
                </g>
            </g>
            <g transform="matrix(0.894332,-0.447405,0.447405,0.894332,-73.7682,303.004)">
                <g transform="matrix(80,0,0,80,604.582,307.671)">
                    <path d="M0.086,-0.411C0.086,-0.405 0.085,-0.401 0.082,-0.399C0.08,-0.396 0.075,-0.395 0.069,-0.395C0.066,-0.395 0.061,-0.395 0.055,-0.396C0.049,-0.397 0.043,-0.398 0.036,-0.4C0.03,-0.402 0.024,-0.404 0.02,-0.407C0.015,-0.41 0.013,-0.413 0.013,-0.417C0.013,-0.419 0.013,-0.422 0.014,-0.428C0.015,-0.434 0.016,-0.441 0.018,-0.448C0.019,-0.455 0.021,-0.461 0.022,-0.466C0.023,-0.472 0.024,-0.475 0.024,-0.476L0.024,-0.475C0.026,-0.478 0.028,-0.479 0.03,-0.48C0.033,-0.481 0.035,-0.481 0.037,-0.481C0.04,-0.481 0.044,-0.481 0.049,-0.48C0.053,-0.479 0.058,-0.478 0.063,-0.476C0.067,-0.475 0.072,-0.473 0.076,-0.471C0.08,-0.468 0.082,-0.466 0.083,-0.463C0.084,-0.461 0.085,-0.457 0.085,-0.453L0.084,-0.436C0.084,-0.434 0.084,-0.433 0.084,-0.432C0.084,-0.431 0.084,-0.429 0.084,-0.427L0.086,-0.417C0.086,-0.415 0.086,-0.413 0.086,-0.411ZM0.104,-0.021C0.104,-0.014 0.102,-0.009 0.099,-0.006C0.095,-0.003 0.09,-0.001 0.083,-0.001C0.079,-0.001 0.074,-0.001 0.07,-0.002C0.065,-0.003 0.06,-0.005 0.056,-0.007C0.051,-0.008 0.047,-0.011 0.043,-0.013C0.039,-0.016 0.036,-0.019 0.034,-0.022C0.033,-0.024 0.032,-0.03 0.031,-0.04C0.03,-0.05 0.029,-0.063 0.029,-0.078C0.028,-0.093 0.028,-0.109 0.027,-0.128C0.027,-0.146 0.026,-0.165 0.026,-0.184C0.026,-0.203 0.026,-0.221 0.026,-0.239L0.026,-0.324C0.026,-0.327 0.026,-0.33 0.026,-0.333C0.026,-0.337 0.027,-0.34 0.028,-0.342C0.029,-0.344 0.031,-0.347 0.033,-0.348C0.036,-0.35 0.039,-0.351 0.044,-0.351C0.058,-0.351 0.069,-0.347 0.075,-0.339C0.082,-0.331 0.086,-0.32 0.088,-0.307C0.09,-0.287 0.091,-0.267 0.092,-0.247C0.092,-0.228 0.093,-0.208 0.094,-0.188C0.094,-0.169 0.095,-0.151 0.095,-0.134C0.096,-0.116 0.097,-0.098 0.099,-0.081C0.099,-0.077 0.099,-0.074 0.1,-0.07C0.1,-0.067 0.1,-0.064 0.101,-0.061C0.102,-0.054 0.102,-0.048 0.103,-0.041C0.104,-0.035 0.104,-0.028 0.104,-0.021Z" style="fill-rule:nonzero;"/>
                </g>
            </g>
            <g transform="matrix(0.954574,-0.297974,0.297974,0.954574,-62.3833,196.519)">
                <g transform="matrix(80,0,0,80,613.346,302.862)">
                    <path d="M0.217,-0.109C0.217,-0.103 0.216,-0.096 0.213,-0.088C0.211,-0.081 0.208,-0.074 0.206,-0.068C0.202,-0.058 0.197,-0.049 0.191,-0.04C0.186,-0.031 0.18,-0.023 0.172,-0.016C0.165,-0.009 0.157,-0.004 0.148,0C0.139,0.005 0.129,0.007 0.117,0.007C0.097,0.007 0.08,0.002 0.067,-0.008C0.054,-0.018 0.043,-0.031 0.035,-0.046C0.027,-0.062 0.022,-0.078 0.019,-0.097C0.016,-0.115 0.014,-0.132 0.014,-0.148C0.014,-0.16 0.015,-0.175 0.016,-0.191C0.017,-0.208 0.018,-0.225 0.021,-0.242C0.024,-0.26 0.028,-0.277 0.033,-0.294C0.039,-0.312 0.046,-0.327 0.054,-0.341C0.063,-0.354 0.073,-0.365 0.085,-0.374C0.097,-0.382 0.112,-0.386 0.129,-0.386C0.132,-0.386 0.138,-0.386 0.145,-0.384C0.151,-0.383 0.158,-0.381 0.165,-0.379C0.171,-0.376 0.177,-0.373 0.182,-0.369C0.187,-0.365 0.19,-0.36 0.19,-0.355C0.19,-0.35 0.188,-0.346 0.183,-0.344C0.179,-0.341 0.174,-0.339 0.168,-0.338C0.162,-0.337 0.156,-0.336 0.149,-0.336C0.143,-0.336 0.138,-0.336 0.134,-0.336L0.125,-0.336C0.116,-0.328 0.108,-0.316 0.103,-0.3C0.097,-0.284 0.092,-0.267 0.089,-0.25C0.086,-0.232 0.083,-0.214 0.082,-0.197C0.081,-0.179 0.08,-0.165 0.08,-0.154C0.08,-0.138 0.081,-0.123 0.084,-0.108C0.086,-0.093 0.091,-0.078 0.099,-0.065C0.1,-0.062 0.103,-0.059 0.106,-0.055C0.109,-0.051 0.112,-0.049 0.116,-0.049C0.119,-0.049 0.122,-0.052 0.125,-0.057C0.128,-0.062 0.131,-0.067 0.134,-0.074C0.136,-0.08 0.139,-0.087 0.14,-0.093C0.142,-0.099 0.143,-0.104 0.144,-0.106C0.144,-0.108 0.144,-0.109 0.144,-0.111L0.144,-0.124C0.144,-0.127 0.145,-0.129 0.146,-0.131C0.148,-0.136 0.151,-0.14 0.155,-0.142C0.158,-0.144 0.163,-0.145 0.168,-0.145C0.173,-0.145 0.179,-0.144 0.184,-0.143C0.19,-0.142 0.195,-0.14 0.2,-0.137C0.205,-0.134 0.209,-0.13 0.212,-0.125C0.215,-0.121 0.217,-0.116 0.217,-0.109Z" style="fill-rule:nonzero;"/>
                </g>
            </g>
            <g transform="matrix(0.9962,-0.0870956,0.0870956,0.9962,-23.5089,55.9812)">
                <g transform="matrix(80,0,0,80,629.78,297.398)">
                    <path d="M0.264,0.007C0.264,0.011 0.262,0.014 0.258,0.017C0.254,0.02 0.249,0.022 0.244,0.024C0.239,0.026 0.234,0.028 0.229,0.029C0.224,0.03 0.22,0.031 0.217,0.031C0.211,0.031 0.206,0.03 0.202,0.028C0.197,0.025 0.193,0.023 0.189,0.02C0.185,0.016 0.181,0.013 0.178,0.009C0.175,0.005 0.171,0.001 0.168,-0.003C0.157,-0.017 0.145,-0.033 0.133,-0.05C0.121,-0.067 0.111,-0.083 0.101,-0.099L0.102,-0.089C0.103,-0.083 0.103,-0.076 0.104,-0.069L0.107,-0.037C0.108,-0.034 0.108,-0.03 0.109,-0.025C0.11,-0.02 0.11,-0.015 0.111,-0.01C0.111,-0.005 0.112,0.001 0.112,0.006C0.112,0.013 0.11,0.018 0.106,0.02C0.102,0.023 0.097,0.024 0.09,0.024C0.086,0.024 0.081,0.024 0.076,0.023C0.07,0.022 0.065,0.021 0.061,0.019C0.056,0.017 0.051,0.014 0.047,0.011C0.043,0.008 0.041,0.004 0.039,-0.001C0.038,-0.005 0.037,-0.013 0.036,-0.023C0.035,-0.034 0.034,-0.046 0.033,-0.059C0.033,-0.073 0.032,-0.086 0.031,-0.099C0.031,-0.112 0.031,-0.124 0.03,-0.132L0.03,-0.141C0.027,-0.143 0.025,-0.146 0.023,-0.149C0.021,-0.153 0.02,-0.156 0.02,-0.159C0.02,-0.163 0.021,-0.167 0.022,-0.17C0.024,-0.173 0.026,-0.176 0.028,-0.179C0.026,-0.219 0.025,-0.259 0.025,-0.299C0.025,-0.332 0.025,-0.364 0.026,-0.397C0.027,-0.429 0.028,-0.462 0.028,-0.494L0.03,-0.56C0.03,-0.563 0.03,-0.567 0.03,-0.572L0.03,-0.611C0.03,-0.619 0.03,-0.626 0.031,-0.633C0.031,-0.64 0.031,-0.646 0.032,-0.652C0.032,-0.657 0.033,-0.661 0.034,-0.664L0.034,-0.664C0.035,-0.668 0.037,-0.672 0.039,-0.674C0.041,-0.677 0.045,-0.678 0.051,-0.678C0.064,-0.678 0.075,-0.674 0.083,-0.666C0.09,-0.657 0.094,-0.646 0.094,-0.633C0.094,-0.611 0.094,-0.589 0.094,-0.568L0.092,-0.437C0.092,-0.416 0.092,-0.394 0.092,-0.372L0.092,-0.324C0.093,-0.318 0.093,-0.311 0.093,-0.304L0.093,-0.283L0.146,-0.367L0.146,-0.366L0.15,-0.375C0.151,-0.377 0.151,-0.378 0.152,-0.378C0.152,-0.379 0.152,-0.38 0.153,-0.381C0.153,-0.382 0.154,-0.384 0.156,-0.387C0.158,-0.389 0.161,-0.393 0.166,-0.398C0.167,-0.4 0.169,-0.402 0.171,-0.403C0.174,-0.404 0.177,-0.405 0.18,-0.405C0.184,-0.405 0.187,-0.404 0.191,-0.402C0.195,-0.399 0.198,-0.397 0.201,-0.394C0.204,-0.39 0.207,-0.387 0.208,-0.383C0.21,-0.379 0.211,-0.375 0.211,-0.372C0.211,-0.369 0.21,-0.365 0.207,-0.359C0.204,-0.352 0.2,-0.345 0.196,-0.335C0.191,-0.326 0.186,-0.316 0.18,-0.306C0.174,-0.295 0.168,-0.285 0.161,-0.274C0.155,-0.263 0.149,-0.253 0.143,-0.243C0.137,-0.233 0.132,-0.224 0.127,-0.216L0.115,-0.195C0.122,-0.182 0.131,-0.168 0.141,-0.152C0.151,-0.136 0.161,-0.12 0.172,-0.104C0.183,-0.089 0.195,-0.073 0.206,-0.059C0.218,-0.044 0.229,-0.031 0.24,-0.02L0.245,-0.016C0.249,-0.013 0.253,-0.01 0.257,-0.006C0.262,-0.002 0.264,0.003 0.264,0.007Z" style="fill-rule:nonzero;"/>
                </g>
            </g>
            <g transform="matrix(0.964563,0.263852,-0.263852,0.964563,101.306,-163.819)">
                <g transform="matrix(80,0,0,80,660.527,295.236)">
                    <path d="M0.409,-0.38C0.409,-0.365 0.405,-0.355 0.398,-0.349C0.39,-0.343 0.38,-0.339 0.366,-0.336C0.369,-0.286 0.371,-0.236 0.372,-0.187C0.373,-0.137 0.373,-0.087 0.373,-0.037C0.373,-0.029 0.371,-0.023 0.368,-0.019C0.365,-0.015 0.359,-0.013 0.351,-0.013C0.343,-0.013 0.336,-0.014 0.329,-0.015C0.322,-0.017 0.316,-0.019 0.311,-0.023C0.305,-0.026 0.301,-0.031 0.297,-0.036C0.294,-0.042 0.292,-0.049 0.292,-0.058L0.292,-0.268C0.292,-0.287 0.292,-0.306 0.291,-0.325C0.263,-0.321 0.235,-0.318 0.207,-0.315C0.179,-0.312 0.151,-0.311 0.123,-0.31C0.124,-0.24 0.126,-0.171 0.129,-0.102C0.13,-0.087 0.131,-0.073 0.132,-0.06C0.133,-0.046 0.134,-0.032 0.134,-0.019C0.134,-0.012 0.132,-0.007 0.128,-0.004C0.125,-0.001 0.12,0.001 0.113,0.001C0.108,0.001 0.103,0.001 0.098,-0C0.092,-0.001 0.087,-0.002 0.081,-0.004C0.076,-0.006 0.071,-0.009 0.066,-0.012C0.062,-0.015 0.058,-0.018 0.056,-0.022C0.055,-0.024 0.054,-0.029 0.053,-0.037C0.053,-0.045 0.052,-0.056 0.052,-0.068C0.051,-0.08 0.051,-0.094 0.05,-0.11C0.05,-0.125 0.05,-0.142 0.05,-0.158L0.05,-0.309C0.045,-0.309 0.041,-0.31 0.038,-0.312C0.034,-0.314 0.032,-0.317 0.032,-0.322C0.032,-0.328 0.034,-0.334 0.037,-0.339C0.041,-0.344 0.045,-0.349 0.05,-0.353L0.05,-0.647C0.05,-0.654 0.051,-0.659 0.053,-0.663C0.056,-0.667 0.061,-0.669 0.067,-0.669C0.078,-0.669 0.087,-0.667 0.094,-0.664C0.101,-0.661 0.106,-0.656 0.109,-0.651C0.113,-0.645 0.115,-0.638 0.116,-0.63C0.117,-0.622 0.118,-0.614 0.118,-0.604C0.119,-0.565 0.12,-0.525 0.12,-0.485C0.12,-0.446 0.121,-0.406 0.122,-0.366C0.15,-0.369 0.178,-0.372 0.206,-0.374C0.233,-0.377 0.261,-0.381 0.289,-0.387C0.287,-0.421 0.285,-0.455 0.283,-0.489C0.281,-0.523 0.277,-0.557 0.272,-0.592C0.27,-0.608 0.267,-0.624 0.263,-0.64C0.26,-0.656 0.258,-0.673 0.258,-0.689C0.258,-0.695 0.26,-0.699 0.264,-0.701C0.269,-0.702 0.273,-0.703 0.278,-0.703C0.286,-0.703 0.294,-0.702 0.302,-0.699C0.31,-0.697 0.316,-0.692 0.321,-0.686C0.324,-0.681 0.327,-0.672 0.331,-0.659C0.334,-0.645 0.337,-0.629 0.34,-0.611C0.342,-0.592 0.345,-0.572 0.348,-0.551C0.35,-0.529 0.353,-0.509 0.354,-0.489C0.356,-0.469 0.358,-0.452 0.36,-0.436C0.361,-0.42 0.362,-0.409 0.362,-0.401C0.366,-0.402 0.37,-0.403 0.375,-0.404C0.379,-0.405 0.383,-0.405 0.387,-0.405C0.395,-0.405 0.4,-0.403 0.404,-0.398C0.407,-0.393 0.409,-0.387 0.409,-0.38Z" style="fill-rule:nonzero;"/>
                </g>
            </g>
            <g transform="matrix(0.888629,0.458626,-0.458626,0.888629,216.688,-283.399)">
                <g transform="matrix(80,0,0,80,691.865,304.462)">
                    <path d="M0.213,-0.089C0.213,-0.08 0.21,-0.069 0.205,-0.059C0.199,-0.049 0.193,-0.039 0.184,-0.031C0.176,-0.022 0.166,-0.015 0.155,-0.009C0.144,-0.004 0.133,-0.001 0.123,-0.001C0.107,-0.001 0.094,-0.004 0.083,-0.01C0.072,-0.016 0.062,-0.024 0.054,-0.034C0.046,-0.045 0.039,-0.056 0.034,-0.069C0.029,-0.082 0.025,-0.096 0.022,-0.11C0.02,-0.123 0.017,-0.137 0.016,-0.151C0.015,-0.165 0.015,-0.178 0.015,-0.189C0.015,-0.199 0.015,-0.21 0.016,-0.224C0.017,-0.237 0.019,-0.251 0.022,-0.265C0.025,-0.279 0.029,-0.294 0.034,-0.308C0.039,-0.322 0.045,-0.334 0.052,-0.345C0.059,-0.356 0.068,-0.365 0.078,-0.372C0.089,-0.379 0.1,-0.382 0.114,-0.382C0.124,-0.382 0.134,-0.38 0.142,-0.376C0.15,-0.372 0.157,-0.366 0.163,-0.359C0.169,-0.352 0.173,-0.344 0.176,-0.335C0.179,-0.326 0.181,-0.316 0.181,-0.307C0.181,-0.294 0.178,-0.28 0.172,-0.265C0.166,-0.25 0.158,-0.236 0.149,-0.222C0.14,-0.208 0.129,-0.195 0.118,-0.184C0.106,-0.173 0.095,-0.164 0.083,-0.158C0.084,-0.152 0.085,-0.144 0.087,-0.133C0.089,-0.121 0.092,-0.11 0.095,-0.099C0.099,-0.088 0.103,-0.078 0.108,-0.07C0.112,-0.062 0.118,-0.058 0.125,-0.058C0.128,-0.058 0.131,-0.059 0.133,-0.061C0.135,-0.063 0.138,-0.066 0.14,-0.069C0.142,-0.072 0.143,-0.076 0.145,-0.08C0.146,-0.083 0.148,-0.087 0.149,-0.091L0.152,-0.098L0.16,-0.113C0.163,-0.116 0.166,-0.119 0.169,-0.122L0.169,-0.122C0.17,-0.123 0.172,-0.124 0.173,-0.124C0.175,-0.124 0.176,-0.125 0.177,-0.125C0.181,-0.125 0.185,-0.123 0.189,-0.121C0.193,-0.119 0.197,-0.116 0.201,-0.113C0.204,-0.109 0.207,-0.105 0.209,-0.101C0.212,-0.097 0.213,-0.093 0.213,-0.089ZM0.116,-0.305C0.116,-0.308 0.116,-0.311 0.116,-0.315C0.115,-0.319 0.115,-0.322 0.113,-0.324C0.109,-0.319 0.105,-0.312 0.101,-0.304C0.098,-0.297 0.095,-0.289 0.093,-0.281C0.09,-0.272 0.089,-0.264 0.087,-0.255C0.086,-0.247 0.085,-0.239 0.084,-0.232C0.092,-0.242 0.1,-0.253 0.106,-0.266C0.113,-0.279 0.116,-0.292 0.116,-0.305Z" style="fill-rule:nonzero;"/>
                </g>
            </g>
            <g transform="matrix(0.802327,0.596885,-0.596885,0.802327,326.07,-360.392)">
                <g transform="matrix(80,0,0,80,707.146,312.097)">
                    <path d="M0.069,0.008C0.064,0.008 0.059,0.007 0.053,0.006C0.048,0.005 0.042,0.002 0.037,-0C0.032,-0.003 0.028,-0.007 0.025,-0.011C0.021,-0.016 0.02,-0.021 0.02,-0.027C0.02,-0.036 0.02,-0.045 0.021,-0.054C0.022,-0.063 0.022,-0.072 0.023,-0.081L0.023,-0.081L0.026,-0.113C0.027,-0.125 0.028,-0.138 0.029,-0.152C0.029,-0.166 0.03,-0.18 0.031,-0.195C0.031,-0.209 0.031,-0.223 0.032,-0.237C0.032,-0.251 0.032,-0.264 0.032,-0.276L0.032,-0.318C0.031,-0.324 0.031,-0.331 0.031,-0.339L0.031,-0.36C0.031,-0.367 0.032,-0.372 0.034,-0.377C0.036,-0.381 0.041,-0.383 0.049,-0.383C0.057,-0.383 0.065,-0.381 0.073,-0.377C0.081,-0.374 0.087,-0.368 0.09,-0.361L0.09,-0.361C0.091,-0.357 0.093,-0.351 0.094,-0.344C0.094,-0.336 0.095,-0.328 0.095,-0.322C0.101,-0.331 0.107,-0.34 0.114,-0.349C0.121,-0.359 0.129,-0.367 0.137,-0.375C0.145,-0.383 0.153,-0.39 0.163,-0.395C0.172,-0.4 0.181,-0.403 0.192,-0.403C0.206,-0.403 0.216,-0.399 0.223,-0.393C0.23,-0.386 0.236,-0.377 0.239,-0.367C0.242,-0.357 0.244,-0.346 0.244,-0.334L0.245,-0.299C0.245,-0.295 0.245,-0.291 0.244,-0.287C0.244,-0.284 0.244,-0.28 0.242,-0.277C0.241,-0.274 0.239,-0.271 0.237,-0.27C0.234,-0.268 0.23,-0.267 0.225,-0.267C0.22,-0.267 0.214,-0.267 0.208,-0.269C0.203,-0.27 0.197,-0.272 0.192,-0.275C0.187,-0.278 0.183,-0.282 0.179,-0.286C0.176,-0.291 0.174,-0.296 0.173,-0.302L0.173,-0.31L0.174,-0.331C0.164,-0.32 0.155,-0.307 0.147,-0.292C0.139,-0.277 0.132,-0.26 0.125,-0.243C0.119,-0.226 0.113,-0.209 0.109,-0.191C0.104,-0.174 0.1,-0.158 0.097,-0.144L0.097,-0.143C0.096,-0.132 0.096,-0.123 0.095,-0.113C0.095,-0.103 0.095,-0.093 0.094,-0.083C0.094,-0.071 0.094,-0.059 0.093,-0.047C0.093,-0.035 0.092,-0.023 0.09,-0.012C0.09,-0.006 0.088,-0.001 0.085,0.003C0.082,0.006 0.076,0.008 0.069,0.008Z" style="fill-rule:nonzero;"/>
                </g>
            </g>
            <g transform="matrix(0.691211,0.722653,-0.722653,0.691211,456.916,-422.288)">
                <g transform="matrix(80,0,0,80,722.595,323.512)">
                    <path d="M0.213,-0.089C0.213,-0.08 0.21,-0.069 0.205,-0.059C0.199,-0.049 0.193,-0.039 0.184,-0.031C0.176,-0.022 0.166,-0.015 0.155,-0.009C0.144,-0.004 0.133,-0.001 0.123,-0.001C0.107,-0.001 0.094,-0.004 0.083,-0.01C0.072,-0.016 0.062,-0.024 0.054,-0.034C0.046,-0.045 0.039,-0.056 0.034,-0.069C0.029,-0.082 0.025,-0.096 0.022,-0.11C0.02,-0.123 0.017,-0.137 0.016,-0.151C0.015,-0.165 0.015,-0.178 0.015,-0.189C0.015,-0.199 0.015,-0.21 0.016,-0.224C0.017,-0.237 0.019,-0.251 0.022,-0.265C0.025,-0.279 0.029,-0.294 0.034,-0.308C0.039,-0.322 0.045,-0.334 0.052,-0.345C0.059,-0.356 0.068,-0.365 0.078,-0.372C0.089,-0.379 0.1,-0.382 0.114,-0.382C0.124,-0.382 0.134,-0.38 0.142,-0.376C0.15,-0.372 0.157,-0.366 0.163,-0.359C0.169,-0.352 0.173,-0.344 0.176,-0.335C0.179,-0.326 0.181,-0.316 0.181,-0.307C0.181,-0.294 0.178,-0.28 0.172,-0.265C0.166,-0.25 0.158,-0.236 0.149,-0.222C0.14,-0.208 0.129,-0.195 0.118,-0.184C0.106,-0.173 0.095,-0.164 0.083,-0.158C0.084,-0.152 0.085,-0.144 0.087,-0.133C0.089,-0.121 0.092,-0.11 0.095,-0.099C0.099,-0.088 0.103,-0.078 0.108,-0.07C0.112,-0.062 0.118,-0.058 0.125,-0.058C0.128,-0.058 0.131,-0.059 0.133,-0.061C0.135,-0.063 0.138,-0.066 0.14,-0.069C0.142,-0.072 0.143,-0.076 0.145,-0.08C0.146,-0.083 0.148,-0.087 0.149,-0.091L0.152,-0.098L0.16,-0.113C0.163,-0.116 0.166,-0.119 0.169,-0.122L0.169,-0.122C0.17,-0.123 0.172,-0.124 0.173,-0.124C0.175,-0.124 0.176,-0.125 0.177,-0.125C0.181,-0.125 0.185,-0.123 0.189,-0.121C0.193,-0.119 0.197,-0.116 0.201,-0.113C0.204,-0.109 0.207,-0.105 0.209,-0.101C0.212,-0.097 0.213,-0.093 0.213,-0.089ZM0.116,-0.305C0.116,-0.308 0.116,-0.311 0.116,-0.315C0.115,-0.319 0.115,-0.322 0.113,-0.324C0.109,-0.319 0.105,-0.312 0.101,-0.304C0.098,-0.297 0.095,-0.289 0.093,-0.281C0.09,-0.272 0.089,-0.264 0.087,-0.255C0.086,-0.247 0.085,-0.239 0.084,-0.232C0.092,-0.242 0.1,-0.253 0.106,-0.266C0.113,-0.279 0.116,-0.292 0.116,-0.305Z" style="fill-rule:nonzero;"/>
                </g>
            </g>
        </g>
        <g transform="matrix(4.12236e-17,0.673233,-0.673233,4.12236e-17,422.955,-283.94)">
            <path d="M667.488,421.103C662.619,399.64 654.398,379.128 645.88,358.894C638.201,341.576 631.132,323.758 620.859,307.775C615.853,299.577 605.14,293.449 597.219,301.65C588.279,313.859 583.536,328.638 576.656,342.045C561.456,375.381 545.702,408.495 531.841,442.419C555.535,412.588 578.952,382.345 598.024,349.283C600.046,345.672 602.014,342.028 603.928,338.354C603.809,338.736 603.669,339.301 603.496,340.128C592.027,383.043 586.361,427.5 585.499,471.883C585.684,515.579 590.924,559.107 597.645,602.229C608.192,535.485 613.919,467.73 609.628,400.18C608.634,381.263 606.963,362.386 604.927,343.554C604.539,341.948 604.629,337.747 604.236,337.762C605.494,335.34 606.71,332.898 607.886,330.437C609.756,333.654 611.585,336.895 613.466,340.101C626.634,363.362 641.543,385.557 656.878,407.431C660.687,412.966 664.448,418.534 668.159,424.135C667.934,423.127 667.722,422.111 667.488,421.103Z" style="fill-rule:nonzero;"/>
        </g>
    </g>
</svg>
