<?xml version="1.0" encoding="UTF-8" standalone="no"?>
<!DOCTYPE svg PUBLIC "-//W3C//DTD SVG 1.1//EN" "http://www.w3.org/Graphics/SVG/1.1/DTD/svg11.dtd">
<svg width="100%" height="100%" viewBox="0 0 500 500" version="1.1" xmlns="http://www.w3.org/2000/svg" xmlns:xlink="http://www.w3.org/1999/xlink" xml:space="preserve" xmlns:serif="http://www.serif.com/" style="fill-rule:evenodd;clip-rule:evenodd;stroke-linejoin:round;stroke-miterlimit:2;">
    <g transform="matrix(1.23721,0,0,1.23721,14.9821,4.31212e-06)">
        <g transform="matrix(1.5177,0,0,1.17122,-8.88403,-80.8462)">
            <path d="M217.785,107.39C196.728,79.005 33.887,86.661 25.306,95.841C-2.641,125.74 41.234,263.611 44.131,348.327C79.763,382.917 160.166,376.402 217.745,368.311C217.745,368.311 264.111,169.84 217.785,107.39Z" style="fill:rgb(0,180,255);"/>
        </g>
        <g transform="matrix(0.682653,0,0,0.682653,19.295,31.4047)">
            <path d="M481.088,233.421C476.743,195.372 471.303,157.456 467.11,119.387C463.34,92.304 461.742,64.422 453.039,38.356C429.693,-16.591 348.353,2.543 313.889,6.128C218.901,21.095 126.67,49.226 35.067,77.825C19.368,82.495 43.931,77.241 49.888,76.673C103.84,69.569 190.28,54.017 232.7,48.576C264.333,44.422 310.009,37.668 352.333,35.722C386.402,35.695 396.479,34.636 414.81,46.206C415.191,46.585 415.54,46.99 415.896,47.394C416.647,48.485 417.333,49.619 417.949,50.792C418.826,53.225 419.602,55.692 420.277,58.191C430.431,106.09 428.621,109.95 435.309,156.409C442.975,215.087 451.888,258.696 450.549,323.748C448.473,377.871 440.762,453.604 425.631,464.745C395.881,470.017 287.415,465.38 226.308,465.032C169.818,463.348 88.51,462.868 58.937,452.542C56.009,451.297 53.213,449.759 50.594,447.951C50.383,447.756 50.201,447.536 49.998,447.332C46.321,441.443 45.985,396.582 45.118,366.998C42.141,267.824 33.672,168.892 23.112,70.263C20.759,160.221 18.687,250.184 16.898,340.154C16.304,365.962 15.509,391.766 15.034,417.578C14.853,432.607 14.804,448.422 21.06,462.379C40.892,501.529 144.991,491.936 185.284,496.233C263.308,498.44 341.374,500.948 419.429,499.639C469.487,497.77 472.744,435.71 478.426,397.723C485.45,343.244 487.663,288.06 481.088,233.421ZM250.686,329.635C212.821,332.643 175.687,341.103 138.102,346.241C217.356,354.028 296.765,342.49 375.938,338.81C334.881,329.509 292.66,326.417 250.686,329.635ZM209.116,243.065C181.11,245.033 155.309,249.808 128.519,252.673C200.738,261.174 296.106,258.19 357.387,252.936C308.631,243.001 258.758,239.68 209.116,243.065ZM341.656,163.421C296.705,155.208 250.955,153.244 205.381,155.874C167.293,156.427 129.301,159.465 92.107,168.006C132.008,167.426 171.745,171.116 211.602,171.727C238.1,171.423 264.476,168.443 290.93,167.171C308.873,166.227 326.807,165.159 344.735,163.967C343.709,163.785 342.682,163.604 341.656,163.421Z" style="fill:white;fill-rule:nonzero;"/>
        </g>
        <g transform="matrix(0.808272,0,0,0.808272,-12.1096,-3.48536e-06)">
            <path d="M481.088,233.421C476.743,195.372 471.303,157.456 467.11,119.387C463.34,92.304 461.742,64.422 453.039,38.356C429.693,-16.591 348.353,2.543 313.889,6.128C218.901,21.095 126.67,49.226 35.067,77.825C19.368,82.495 43.931,77.241 49.888,76.673C103.84,69.569 190.28,54.017 232.7,48.576C264.333,44.422 310.009,37.668 352.333,35.722C386.402,35.695 396.479,34.636 414.81,46.206C415.191,46.585 415.54,46.99 415.896,47.394C416.647,48.485 417.333,49.619 417.949,50.792C418.826,53.225 419.602,55.692 420.277,58.191C430.431,106.09 428.621,109.95 435.309,156.409C442.975,215.087 451.888,258.696 450.549,323.748C448.473,377.871 440.762,453.604 425.631,464.745C395.881,470.017 287.415,465.38 226.308,465.032C169.818,463.348 88.51,462.868 58.937,452.542C56.009,451.297 53.213,449.759 50.594,447.951C50.383,447.756 50.201,447.536 49.998,447.332C46.321,441.443 45.985,396.582 45.118,366.998C42.141,267.824 33.672,168.892 23.112,70.263C20.759,160.221 18.687,250.184 16.898,340.154C16.304,365.962 15.509,391.766 15.034,417.578C14.853,432.607 14.804,448.422 21.06,462.379C40.892,501.529 144.991,491.936 185.284,496.233C263.308,498.44 341.374,500.948 419.429,499.639C469.487,497.77 472.744,435.71 478.426,397.723C485.45,343.244 487.663,288.06 481.088,233.421ZM250.686,329.635C212.821,332.643 175.687,341.103 138.102,346.241C217.356,354.028 296.765,342.49 375.938,338.81C334.881,329.509 292.66,326.417 250.686,329.635ZM209.116,231.225C181.11,233.193 155.309,237.968 128.519,240.833C200.738,249.334 296.106,246.35 357.387,241.096C308.631,231.16 258.758,227.84 209.116,231.225ZM341.656,163.421C296.705,155.208 250.955,153.244 205.381,155.874C167.293,156.427 129.301,159.465 92.107,168.006C132.008,167.426 171.745,171.116 211.602,171.727C238.1,171.423 264.476,168.443 290.93,167.171C308.873,166.227 326.807,165.159 344.735,163.967C343.709,163.785 342.682,163.604 341.656,163.421Z" style="fill-rule:nonzero;"/>
        </g>
    </g>
</svg>
